<svg width="31" height="31" viewBox="0 0 31 31" fill="none" xmlns="http://www.w3.org/2000/svg">
<path d="M8.48462 5.354C6.82776 5.354 5.48462 6.69715 5.48462 8.354V11.354C5.48462 13.0109 6.82776 14.354 8.48462 14.354H11.4846C13.1415 14.354 14.4846 13.0109 14.4846 11.354V8.354C14.4846 6.69715 13.1415 5.354 11.4846 5.354H8.48462Z" fill="#839F9F"/>
<path d="M8.48462 17.354C6.82776 17.354 5.48462 18.6971 5.48462 20.354V23.354C5.48462 25.0109 6.82776 26.354 8.48462 26.354H11.4846C13.1415 26.354 14.4846 25.0109 14.4846 23.354V20.354C14.4846 18.6971 13.1415 17.354 11.4846 17.354H8.48462Z" fill="#839F9F"/>
<path d="M17.4846 8.354C17.4846 6.69715 18.8278 5.354 20.4846 5.354H23.4846C25.1415 5.354 26.4846 6.69715 26.4846 8.354V11.354C26.4846 13.0109 25.1415 14.354 23.4846 14.354H20.4846C18.8278 14.354 17.4846 13.0109 17.4846 11.354V8.354Z" fill="#839F9F"/>
<path d="M17.4846 20.354C17.4846 18.6971 18.8278 17.354 20.4846 17.354H23.4846C25.1415 17.354 26.4846 18.6971 26.4846 20.354V23.354C26.4846 25.0109 25.1415 26.354 23.4846 26.354H20.4846C18.8278 26.354 17.4846 25.0109 17.4846 23.354V20.354Z" fill="#839F9F"/>
</svg>
