<svg width="31" height="31" viewBox="0 0 31 31" fill="none" xmlns="http://www.w3.org/2000/svg">
<g clip-path="url(#clip0_257_6856)">
<path d="M24.7346 18.0635C27.496 18.0635 29.7346 20.5635 29.7346 22.4385C29.7346 23.474 28.8951 24.3135 27.8596 24.3135H27.2346M22.2346 14.3135C24.3057 14.3135 25.9846 12.6345 25.9846 10.5635C25.9846 8.49241 24.3057 6.81348 22.2346 6.81348M7.23462 18.0635C4.47319 18.0635 2.23462 20.5635 2.23462 22.4385C2.23462 23.474 3.07408 24.3135 4.10962 24.3135H4.73462M9.73462 14.3135C7.66356 14.3135 5.98462 12.6345 5.98462 10.5635C5.98462 8.49241 7.66356 6.81348 9.73462 6.81348M21.6096 24.3135H10.3596C9.32408 24.3135 8.48462 23.474 8.48462 22.4385C8.48462 19.3135 12.2346 18.0635 15.9846 18.0635C19.7346 18.0635 23.4846 19.3135 23.4846 22.4385C23.4846 23.474 22.6451 24.3135 21.6096 24.3135ZM19.7346 10.5635C19.7346 12.6345 18.0557 14.3135 15.9846 14.3135C13.9135 14.3135 12.2346 12.6345 12.2346 10.5635C12.2346 8.49241 13.9135 6.81348 15.9846 6.81348C18.0557 6.81348 19.7346 8.49241 19.7346 10.5635Z" stroke="#839F9F" stroke-width="2" stroke-linecap="round" stroke-linejoin="round"/>
</g>
<defs>
<clipPath id="clip0_257_6856">
<rect width="30" height="30" fill="white" transform="translate(0.984619 0.563477)"/>
</clipPath>
</defs>
</svg>
