<svg width="31" height="31" viewBox="0 0 31 31" fill="none" xmlns="http://www.w3.org/2000/svg">
<g id="category_24dp_FILL0_wght300_GRAD0_opsz24 1">
<path id="Vector" d="M9.97495 13.5412L15.9846 3.68555L21.9943 13.5412H9.97495ZM22.8596 27.2912C21.4253 27.2912 20.2093 26.7924 19.2118 25.7949C18.2143 24.7974 17.7156 23.5815 17.7156 22.1471C17.7156 20.7127 18.2143 19.4968 19.2118 18.4993C20.2093 17.5018 21.4253 17.003 22.8596 17.003C24.294 17.003 25.5099 17.5018 26.5074 18.4993C27.5049 19.4968 28.0037 20.7127 28.0037 22.1471C28.0037 23.5815 27.5049 24.7974 26.5074 25.7949C25.5099 26.7924 24.294 27.2912 22.8596 27.2912ZM5.21558 26.6662V17.628H14.2537V26.6662H5.21558ZM22.8593 25.4165C23.7745 25.4165 24.5483 25.1004 25.1806 24.4684C25.8129 23.8363 26.129 23.0626 26.129 22.1474C26.129 21.2322 25.813 20.4585 25.1809 19.8262C24.5488 19.1939 23.7752 18.8777 22.8599 18.8777C21.9447 18.8777 21.171 19.1938 20.5387 19.8259C19.9064 20.4579 19.5903 21.2316 19.5903 22.1468C19.5903 23.062 19.9063 23.8358 20.5384 24.468C21.1705 25.1003 21.9441 25.4165 22.8593 25.4165ZM7.09026 24.7915H12.379V19.5027H7.09026V24.7915ZM13.2828 11.6665H18.6865L15.9846 7.32023L13.2828 11.6665Z" fill="#839F9F"/>
</g>
</svg>
