<svg width="31" height="31" viewBox="0 0 31 31" fill="none" xmlns="http://www.w3.org/2000/svg">
<path fill-rule="evenodd" clip-rule="evenodd" d="M26.9929 10.2195L26.2148 8.86941C25.5566 7.727 24.0979 7.3329 22.954 7.9884V7.9884C22.4094 8.30918 21.7597 8.40019 21.1479 8.24136C20.5362 8.08253 20.0128 7.6869 19.6931 7.14172C19.4874 6.79519 19.3769 6.4005 19.3727 5.99755V5.99755C19.3913 5.35153 19.1476 4.72551 18.6971 4.26209C18.2466 3.79867 17.6277 3.53733 16.9814 3.5376H15.4139C14.7808 3.53759 14.1737 3.7899 13.7271 4.23868C13.2804 4.68747 13.031 5.29574 13.0341 5.9289V5.9289C13.0153 7.23616 11.9502 8.28602 10.6428 8.28588C10.2398 8.2817 9.84513 8.17118 9.4986 7.96552V7.96552C8.35464 7.31002 6.89595 7.70412 6.23773 8.84652L5.40249 10.2195C4.74507 11.3605 5.13381 12.8183 6.27206 13.4804V13.4804C7.01194 13.9076 7.46772 14.697 7.46772 15.5513C7.46772 16.4057 7.01194 17.1951 6.27206 17.6223V17.6223C5.13525 18.2799 4.74609 19.7342 5.40249 20.8717V20.8717L6.19196 22.2333C6.50037 22.7897 7.01781 23.2004 7.6298 23.3743C8.24179 23.5482 8.89786 23.4711 9.45283 23.16V23.16C9.99841 22.8417 10.6485 22.7545 11.2587 22.9177C11.8689 23.081 12.3886 23.4813 12.7023 24.0296C12.9079 24.3761 13.0184 24.7708 13.0226 25.1738V25.1738C13.0226 26.4944 14.0933 27.5651 15.4139 27.5651H16.9814C18.2977 27.5651 19.3664 26.5014 19.3727 25.1852V25.1852C19.3697 24.55 19.6206 23.94 20.0698 23.4909C20.5189 23.0418 21.1289 22.7908 21.764 22.7939C22.166 22.8046 22.5591 22.9147 22.9082 23.1143V23.1143C24.0492 23.7717 25.507 23.3829 26.1691 22.2447V22.2447L26.9929 20.8717C27.3118 20.3244 27.3993 19.6725 27.2361 19.0605C27.0728 18.4484 26.6724 17.9267 26.1233 17.6108V17.6108C25.5743 17.295 25.1738 16.7732 25.0106 16.1612C24.8474 15.5491 24.9349 14.8973 25.2538 14.35C25.4611 13.9879 25.7613 13.6877 26.1233 13.4804V13.4804C27.2547 12.8186 27.6426 11.3694 26.9929 10.231V10.231V10.2195Z" stroke="#839F9F" stroke-width="2" stroke-linecap="round" stroke-linejoin="round"/>
<circle cx="16.2034" cy="15.5515" r="3.2952" stroke="#839F9F" stroke-width="2" stroke-linecap="round" stroke-linejoin="round"/>
</svg>
