<svg width="20" height="20" viewBox="0 0 20 20" fill="none" xmlns="http://www.w3.org/2000/svg">
<path d="M13.8336 0.800003C13.3738 0.799965 12.9244 0.93626 12.5422 1.19165C12.1599 1.44704 11.862 1.81005 11.6861 2.23477C11.5101 2.6595 11.4641 3.12685 11.5538 3.57773C11.6435 4.02861 11.8649 4.44276 12.19 4.76781C12.5151 5.09285 12.9293 5.31418 13.3802 5.40381C13.8311 5.49344 14.2985 5.44735 14.7232 5.27135C15.1478 5.09535 15.5108 4.79737 15.7661 4.41507C16.0215 4.03278 16.1577 3.58335 16.1576 3.12364C16.1568 2.50755 15.9116 1.91694 15.476 1.48134C15.0403 1.04574 14.4496 0.800711 13.8336 0.800003ZM13.8336 4.77887C13.5063 4.7789 13.1863 4.68189 12.9142 4.50009C12.642 4.3183 12.4299 4.05988 12.3046 3.75752C12.1793 3.45516 12.1465 3.12244 12.2103 2.80143C12.2741 2.48042 12.4316 2.18554 12.663 1.95407C12.8944 1.7226 13.1892 1.56494 13.5102 1.50103C13.8312 1.43712 14.1639 1.46982 14.4663 1.59501C14.7687 1.7202 15.0272 1.93224 15.2091 2.20434C15.391 2.47643 15.4881 2.79635 15.4882 3.12364C15.4878 3.56241 15.3134 3.9831 15.0032 4.29341C14.693 4.60372 14.2723 4.77831 13.8336 4.77887Z" fill="#8A8D8E"/>
<path d="M9.67329 10.1806H7.4426C7.17994 10.1804 6.92812 10.0759 6.74239 9.89017C6.55666 9.70444 6.45221 9.45261 6.45195 9.18995V7.47697C6.45195 7.38821 6.41669 7.30308 6.35393 7.24031C6.29116 7.17755 6.20603 7.14229 6.11727 7.14229C6.02851 7.14229 5.94338 7.17755 5.88062 7.24031C5.81785 7.30308 5.78259 7.38821 5.78259 7.47697V9.18957C5.7831 9.62968 5.95815 10.0516 6.26936 10.3628C6.58056 10.674 7.0025 10.8491 7.4426 10.8496H9.67329C9.76205 10.8496 9.84718 10.8143 9.90995 10.7516C9.97271 10.6888 10.008 10.6037 10.008 10.5149C10.008 10.4261 9.97271 10.341 9.90995 10.2782C9.84718 10.2155 9.76205 10.1802 9.67329 10.1802V10.1806Z" fill="#8A8D8E"/>
<path d="M17.0651 7.90477C17.0212 7.90474 16.9777 7.91338 16.937 7.93019C16.8964 7.947 16.8595 7.97166 16.8284 8.00274C16.7974 8.03382 16.7727 8.07073 16.7559 8.11134C16.7391 8.15196 16.7304 8.19549 16.7305 8.23945V9.0618C16.7298 9.35852 16.6116 9.64288 16.4016 9.85258C16.1917 10.0623 15.9072 10.1802 15.6105 10.1806H11.6626C11.5747 10.1827 11.4871 10.1672 11.4052 10.135C11.3233 10.1028 11.2487 10.0545 11.1857 9.99306C11.1228 9.93158 11.0727 9.85813 11.0385 9.77702C11.0044 9.69592 10.9868 9.6088 10.9868 9.52079C10.9868 9.43279 11.0044 9.34567 11.0385 9.26456C11.0727 9.18346 11.1228 9.11 11.1857 9.04853C11.2487 8.98705 11.3233 8.93879 11.4052 8.90658C11.4871 8.87438 11.5747 8.85888 11.6626 8.861H15.0758C15.1646 8.861 15.2497 8.82574 15.3125 8.76297C15.3752 8.70021 15.4105 8.61508 15.4105 8.52632V7.3798C15.4105 7.29104 15.3752 7.20591 15.3125 7.14315C15.2497 7.08038 15.1646 7.04512 15.0758 7.04512C14.987 7.04512 14.9019 7.08038 14.8392 7.14315C14.7764 7.20591 14.7411 7.29104 14.7411 7.3798V8.19164H11.6621C11.4856 8.18864 11.3104 8.22081 11.1465 8.28626C10.9826 8.35172 10.8334 8.44914 10.7075 8.57286C10.5817 8.69658 10.4818 8.84412 10.4135 9.00687C10.3453 9.16962 10.3102 9.34432 10.3102 9.52079C10.3102 9.69726 10.3453 9.87197 10.4135 10.0347C10.4818 10.1975 10.5817 10.345 10.7075 10.4687C10.8334 10.5924 10.9826 10.6899 11.1465 10.7553C11.3104 10.8208 11.4856 10.8529 11.6621 10.8499H15.6105C16.0849 10.8494 16.5398 10.6607 16.8752 10.3252C17.2106 9.98972 17.3993 9.53488 17.3998 9.06047V8.23811C17.3995 8.14956 17.3641 8.06475 17.3014 8.00226C17.2386 7.93978 17.1537 7.90472 17.0651 7.90477Z" fill="#8A8D8E"/>
<path d="M7.33604 13.9585H4.81027C4.76631 13.9585 4.72278 13.9671 4.68216 13.9839C4.64154 14.0007 4.60464 14.0254 4.57356 14.0564C4.54247 14.0875 4.51782 14.1244 4.50101 14.1651C4.4842 14.2057 4.47556 14.2492 4.47559 14.2932V18.3468C4.47556 18.3908 4.4842 18.4343 4.50101 18.4749C4.51782 18.5155 4.54247 18.5524 4.57356 18.5835C4.60464 18.6146 4.64154 18.6392 4.68216 18.6561C4.72278 18.6729 4.76631 18.6815 4.81027 18.6815H7.33604C7.38 18.6815 7.42353 18.6729 7.46415 18.6561C7.50477 18.6392 7.54167 18.6146 7.57275 18.5835C7.60384 18.5524 7.62849 18.5155 7.6453 18.4749C7.66211 18.4343 7.67075 18.3908 7.67072 18.3468V14.2924C7.67057 14.2038 7.63524 14.1188 7.57248 14.0562C7.50973 13.9936 7.42469 13.9584 7.33604 13.9585ZM7.00137 18.0129H5.14495V14.6278H7.00137V18.0129Z" fill="#8A8D8E"/>
<path d="M16.2523 12.6903H11.4155C11.3715 12.6903 11.328 12.699 11.2874 12.7158C11.2468 12.7326 11.2099 12.7572 11.1788 12.7883C11.1477 12.8194 11.123 12.8563 11.1062 12.8969C11.0894 12.9375 11.0808 12.9811 11.0808 13.025V18.3468C11.0808 18.3908 11.0894 18.4343 11.1062 18.4749C11.123 18.5155 11.1477 18.5524 11.1788 18.5835C11.2099 18.6146 11.2468 18.6393 11.2874 18.6561C11.328 18.6729 11.3715 18.6815 11.4155 18.6815H16.2523C16.2962 18.6815 16.3398 18.6729 16.3804 18.6561C16.421 18.6393 16.4579 18.6146 16.489 18.5835C16.5201 18.5524 16.5447 18.5155 16.5615 18.4749C16.5783 18.4343 16.587 18.3908 16.587 18.3468V13.025C16.587 12.9811 16.5783 12.9375 16.5615 12.8969C16.5447 12.8563 16.5201 12.8194 16.489 12.7883C16.4579 12.7572 16.421 12.7326 16.3804 12.7158C16.3398 12.699 16.2962 12.6903 16.2523 12.6903ZM15.9176 18.0121H11.7509V13.3597H15.9176V18.0121Z" fill="#8A8D8E"/>
<path d="M13.8341 14.3234C13.7901 14.3233 13.7466 14.332 13.706 14.3488C13.6654 14.3656 13.6285 14.3903 13.5974 14.4213C13.5663 14.4524 13.5416 14.4893 13.5248 14.5299C13.508 14.5706 13.4994 14.6141 13.4994 14.658V18.3468C13.4994 18.4355 13.5347 18.5207 13.5974 18.5834C13.6602 18.6462 13.7453 18.6815 13.8341 18.6815C13.9229 18.6815 14.008 18.6462 14.0707 18.5834C14.1335 18.5207 14.1688 18.4355 14.1688 18.3468V14.658C14.1688 14.6141 14.1602 14.5706 14.1433 14.5299C14.1265 14.4893 14.1019 14.4524 14.0708 14.4213C14.0397 14.3903 14.0028 14.3656 13.9622 14.3488C13.9216 14.332 13.8781 14.3233 13.8341 14.3234ZM15.143 4.82573H8.15926C8.11531 4.8257 8.07178 4.83434 8.03116 4.85115C7.99054 4.86796 7.95364 4.89262 7.92255 4.9237C7.89147 4.95478 7.86682 4.99169 7.85001 5.0323C7.8332 5.07292 7.82456 5.11645 7.82459 5.16041V7.37981C7.82456 7.42377 7.8332 7.4673 7.85001 7.50792C7.86682 7.54854 7.89147 7.58544 7.92255 7.61652C7.95364 7.64761 7.99054 7.67226 8.03116 7.68907C8.07178 7.70588 8.11531 7.71452 8.15926 7.71449H10.2681V9.17446C10.2681 9.21429 10.2752 9.2538 10.2892 9.29112C10.3177 9.36431 10.3327 9.44207 10.3333 9.52061C10.3325 9.59914 10.3175 9.67688 10.2892 9.75011C10.2752 9.78736 10.2681 9.82681 10.2681 9.86658V13.025C10.2681 13.069 10.2767 13.1125 10.2936 13.1531C10.3104 13.1937 10.335 13.2306 10.3661 13.2617C10.3972 13.2928 10.4341 13.3174 10.4747 13.3343C10.5153 13.3511 10.5589 13.3597 10.6028 13.3597H17.0654C17.1093 13.3597 17.1529 13.3511 17.1935 13.3343C17.2341 13.3174 17.271 13.2928 17.3021 13.2617C17.3332 13.2306 17.3578 13.1937 17.3746 13.1531C17.3914 13.1125 17.4001 13.069 17.4001 13.025V7.08243C17.3992 6.48411 17.1611 5.91055 16.738 5.48752C16.3149 5.06448 15.7413 4.82649 15.143 4.82573ZM16.7303 12.6909H10.9375V9.92204C11.0243 9.66133 11.0243 9.37951 10.9375 9.11881V7.38039C10.9375 7.33643 10.9289 7.2929 10.9121 7.25228C10.8953 7.21166 10.8706 7.17476 10.8395 7.14368C10.8084 7.11259 10.7715 7.08794 10.7309 7.07113C10.6903 7.05432 10.6468 7.04568 10.6028 7.04571H8.49394V5.49509H15.143C15.5638 5.49565 15.9672 5.66306 16.2648 5.96062C16.5623 6.25819 16.7298 6.66161 16.7303 7.08243V12.6909Z" fill="#8A8D8E"/>
<path d="M9.67281 10.1806C9.62886 10.1806 9.58533 10.1892 9.54471 10.206C9.50409 10.2228 9.46719 10.2475 9.4361 10.2786C9.40502 10.3097 9.38037 10.3466 9.36356 10.3872C9.34675 10.4278 9.33811 10.4713 9.33813 10.5153V18.3468C9.33813 18.4355 9.3734 18.5207 9.43616 18.5834C9.49893 18.6462 9.58405 18.6815 9.67281 18.6815C9.76158 18.6815 9.84671 18.6462 9.90947 18.5834C9.97223 18.5207 10.0075 18.4355 10.0075 18.3468V10.5149C10.0075 10.471 9.99879 10.4275 9.98196 10.3869C9.96513 10.3463 9.94047 10.3095 9.90939 10.2784C9.87831 10.2474 9.84142 10.2228 9.80083 10.206C9.76024 10.1892 9.71674 10.1806 9.67281 10.1806Z" fill="#8A8D8E"/>
<path d="M9.6723 8.19167H8.68164C8.64544 8.19149 8.60976 8.18309 8.57729 8.16708C8.54482 8.15108 8.51641 8.1279 8.49422 8.0993V5.11262C8.49425 5.06866 8.48561 5.02513 8.4688 4.98451C8.45199 4.94389 8.42734 4.90699 8.39625 4.87591C8.36517 4.84482 8.32827 4.82017 8.28765 4.80336C8.24703 4.78655 8.2035 4.77791 8.15954 4.77794H6.62767C5.9431 4.77628 5.26768 4.93505 4.65554 5.24152C4.61031 5.264 4.57076 5.29643 4.53986 5.33638C4.50896 5.37633 4.4875 5.42276 4.4771 5.47219C4.46671 5.52161 4.46764 5.57275 4.47983 5.62177C4.49202 5.67078 4.51515 5.7164 4.54749 5.7552C4.65567 5.88516 4.71488 6.04892 4.71483 6.21802V6.32129C4.71463 6.51346 4.6382 6.6977 4.50231 6.83359C4.36642 6.96948 4.18218 7.04591 3.99001 7.04611H3.59222C3.46111 7.04664 3.33242 7.01083 3.22044 6.94264C3.18188 6.91897 3.13893 6.90336 3.09417 6.89675C3.04942 6.89013 3.00378 6.89266 2.96003 6.90417C2.91628 6.91568 2.87531 6.93594 2.8396 6.96372C2.80389 6.9915 2.77418 7.02623 2.75227 7.06581C2.39008 7.72163 2.20006 8.45857 2.19995 9.20776V14.2924C2.19993 14.3364 2.20857 14.3799 2.22538 14.4205C2.24219 14.4611 2.26684 14.498 2.29792 14.5291C2.329 14.5602 2.36591 14.5848 2.40652 14.6017C2.44714 14.6185 2.49067 14.6271 2.53463 14.6271H8.15916C8.20312 14.6271 8.24665 14.6185 8.28727 14.6017C8.32788 14.5848 8.36479 14.5602 8.39587 14.5291C8.42695 14.498 8.45161 14.4611 8.46842 14.4205C8.48523 14.3799 8.49387 14.3364 8.49384 14.2924V10.85H9.67191C10.0244 10.85 10.3625 10.7099 10.6118 10.4607C10.861 10.2114 11.0011 9.87334 11.0011 9.52082C11.0011 9.16831 10.861 8.83023 10.6118 8.58097C10.3625 8.3317 10.0248 8.19167 9.6723 8.19167ZM9.6723 10.1806H8.15954C8.11559 10.1806 8.07205 10.1892 8.03144 10.206C7.99082 10.2229 7.95392 10.2475 7.92283 10.2786C7.89175 10.3097 7.8671 10.3466 7.85029 10.3872C7.83348 10.4278 7.82484 10.4713 7.82486 10.5153V13.9577H2.86969V9.20718C2.86955 8.67379 2.98285 8.14646 3.20208 7.6602C3.32873 7.69696 3.45996 7.71557 3.59184 7.71547H3.98963C4.35923 7.71496 4.71355 7.56791 4.9749 7.30656C5.23625 7.04521 5.3833 6.69089 5.38381 6.32129V6.21802C5.38378 6.039 5.34923 5.86166 5.28206 5.69572C5.71112 5.53045 6.16711 5.44615 6.6269 5.4471H7.8241V8.18784C7.82413 8.23538 7.83423 8.28238 7.85374 8.32573C7.92567 8.48497 8.0419 8.62014 8.18858 8.71509C8.33525 8.81005 8.50615 8.86077 8.68088 8.86122H9.67153C9.84652 8.86122 10.0143 8.93073 10.1381 9.05447C10.2618 9.17821 10.3313 9.34603 10.3313 9.52102C10.3313 9.69601 10.2618 9.86383 10.1381 9.98756C10.0143 10.1113 9.84728 10.1806 9.6723 10.1806Z" fill="#8A8D8E"/>
<path d="M3.99038 4.82573H3.59259C3.22344 4.82609 2.86952 4.97289 2.60849 5.23391C2.34747 5.49493 2.20067 5.84886 2.20032 6.218V6.32127C2.20019 6.50423 2.2361 6.68543 2.306 6.85451C2.3759 7.02359 2.47842 7.17725 2.60771 7.30671C2.73699 7.43617 2.89051 7.5389 3.05949 7.60903C3.22848 7.67916 3.40962 7.71533 3.59259 7.71545H3.99038C4.35998 7.71494 4.7143 7.5679 4.97565 7.30655C5.237 7.0452 5.38405 6.69088 5.38456 6.32127V6.218C5.38463 6.03498 5.34861 5.85375 5.27855 5.68467C5.20849 5.51559 5.10576 5.362 4.97626 5.23267C4.84676 5.10335 4.69302 5.00084 4.52385 4.93101C4.35468 4.86118 4.17339 4.8254 3.99038 4.82573ZM4.7152 6.32127C4.71499 6.51344 4.63856 6.69769 4.50268 6.83357C4.36679 6.96946 4.18255 7.04589 3.99038 7.04609H3.59259C3.46088 7.04655 3.33163 7.0104 3.21927 6.94167C3.11223 6.87743 3.02372 6.78646 2.96244 6.6777C2.90115 6.56894 2.86918 6.44611 2.86968 6.32127V6.218C2.86993 6.02635 2.94617 5.84262 3.08169 5.7071C3.21721 5.57159 3.40094 5.49534 3.59259 5.49509H3.99038C4.08548 5.49479 4.17972 5.51327 4.26767 5.54947C4.35562 5.58566 4.43556 5.63887 4.5029 5.70604C4.57024 5.7732 4.62366 5.853 4.66009 5.94085C4.69652 6.02871 4.71525 6.12289 4.7152 6.218V6.32127Z" fill="#8A8D8E"/>
<path d="M7.33654 0.800003C6.87683 0.800003 6.42744 0.93633 6.04522 1.19174C5.66299 1.44715 5.36509 1.81018 5.18919 2.23491C5.0133 2.65963 4.9673 3.12698 5.05703 3.57785C5.14676 4.02872 5.36817 4.44285 5.69328 4.76787C6.01838 5.0929 6.43257 5.31421 6.88346 5.40383C7.33435 5.49344 7.80169 5.44733 8.22637 5.27133C8.65105 5.09533 9.014 4.79734 9.26932 4.41505C9.52464 4.03276 9.66086 3.58334 9.66074 3.12364C9.65993 2.50752 9.41478 1.91688 8.97907 1.48127C8.54335 1.04566 7.95265 0.800661 7.33654 0.800003ZM7.33654 4.77887C7.00925 4.77887 6.68932 4.68182 6.41719 4.5C6.14506 4.31818 5.93296 4.05975 5.80769 3.75739C5.68243 3.45503 5.64964 3.12231 5.71346 2.80131C5.77728 2.48032 5.93485 2.18545 6.16625 1.954C6.39764 1.72255 6.69247 1.56491 7.01346 1.50102C7.33444 1.43712 7.66716 1.46984 7.96955 1.59503C8.27194 1.72022 8.53042 1.93227 8.71231 2.20436C8.89419 2.47644 8.99131 2.79635 8.99138 3.12364C8.99098 3.56244 8.81651 3.98316 8.50627 4.29348C8.19602 4.60379 7.77534 4.77836 7.33654 4.77887Z" fill="#8A8D8E"/>
</svg>
