<svg width="20" height="20" viewBox="0 0 20 20" fill="none" xmlns="http://www.w3.org/2000/svg">
<path d="M16.6758 14.582H15.2461C14.3867 14.582 13.6875 15.2852 13.6875 16.1445V16.6875H18.2383V16.1445C18.2383 15.2852 17.5352 14.582 16.6758 14.582ZM17.0703 14.0742C18.0508 14.2617 18.7852 15.125 18.7852 16.1445V16.6875H19.1797C19.332 16.6875 19.4531 16.8086 19.4531 16.9609V18.9141C19.4531 19.0664 19.332 19.1875 19.1797 19.1875H0.820312C0.667969 19.1875 0.546875 19.0664 0.546875 18.9141V16.9609C0.546875 16.8086 0.667969 16.6875 0.820312 16.6875H1.21484V16.1445C1.21484 15.125 1.94922 14.2617 2.92969 14.0742C2.20703 13.4375 2.17188 12.3203 2.85156 11.6367C3.20703 11.2812 3.71094 11.0977 4.23438 11.1602V4.64063C4.23438 2.53125 5.95703 0.808594 8.06641 0.808594H11.625C11.7773 0.808594 11.8984 0.929688 11.8984 1.08203V4.48438H15.4844C15.6367 4.48438 15.7578 4.60547 15.7578 4.75781V11.1602C16.7578 11.0391 17.6328 11.8203 17.6328 12.8203C17.6367 13.3164 17.418 13.7656 17.0703 14.0742ZM13.3281 15.2812C13.6094 14.6602 14.1797 14.2031 14.8555 14.0742C13.9609 13.2852 14.1602 11.8516 15.2148 11.3242V5.03125H11.9023V10.9102C11.9023 10.9727 11.8828 11.0312 11.8477 11.0781C12.1992 11.9219 11.9336 12.8906 11.2188 13.4375C12.2266 13.5742 13.0586 14.3086 13.3281 15.2812ZM4.75 14.582H3.32031C2.46484 14.582 1.76172 15.2852 1.76172 16.1445V16.6875H6.3125V16.1445C6.3125 15.2852 5.60938 14.582 4.75 14.582ZM5.14453 14.0742C5.82031 14.2031 6.39062 14.6602 6.67188 15.2812C6.94141 14.3086 7.77344 13.5742 8.78125 13.4375C7.82422 12.7031 7.72656 11.293 8.58203 10.4336C9.33984 9.67578 10.5625 9.64844 11.3516 10.3789V1.35547H8.06641C6.26172 1.35547 4.78125 2.83594 4.78125 4.64063V11.3203C5.83984 11.8516 6.03516 13.2852 5.14453 14.0742ZM4.03516 11.6953C3.03516 11.6953 2.53125 12.9102 3.23828 13.6172C3.94531 14.3242 5.16016 13.8203 5.16016 12.8203C5.16406 12.1992 4.66016 11.6953 4.03516 11.6953ZM10 10.3945C9.19531 10.3945 8.54688 11.0469 8.54688 11.8477C8.54688 12.6523 9.19531 13.3008 10 13.3008C10.8047 13.3008 11.4531 12.6484 11.4531 11.8477C11.4531 11.0469 10.8047 10.3945 10 10.3945ZM10.8828 13.9609H9.12109C8.02734 13.9609 7.12891 14.8594 7.12891 15.9531V16.6875H12.8711V15.9531C12.8711 14.8594 11.9766 13.9609 10.8828 13.9609ZM15.9609 11.6953C14.9609 11.6953 14.457 12.9102 15.1641 13.6172C15.8711 14.3242 17.0859 13.8203 17.0859 12.8203C17.0898 12.1992 16.5859 11.6953 15.9609 11.6953ZM13.1133 6.53516C12.9609 6.53516 12.8398 6.41406 12.8398 6.26172C12.8398 6.10938 12.9609 5.98828 13.1133 5.98828H14.0039C14.1562 5.98828 14.2773 6.10938 14.2773 6.26172C14.2773 6.41406 14.1562 6.53516 14.0039 6.53516H13.1133ZM13.4609 9.83594C13.3086 9.83594 13.1875 9.71484 13.1875 9.5625C13.1875 9.41016 13.3086 9.28906 13.4609 9.28906H14C14.1523 9.28906 14.2734 9.41016 14.2734 9.5625C14.2734 9.71484 14.1523 9.83594 14 9.83594H13.4609ZM13.1133 8.18359C12.9609 8.18359 12.8398 8.0625 12.8398 7.91016C12.8398 7.75781 12.9609 7.63672 13.1133 7.63672H14.0039C14.1562 7.63672 14.2773 7.75781 14.2773 7.91016C14.2773 8.0625 14.1562 8.18359 14.0039 8.18359H13.1133ZM6.01172 11.4883C5.85937 11.4883 5.73828 11.3672 5.73828 11.2148C5.73828 11.0625 5.85937 10.9414 6.01172 10.9414H6.63281C6.78516 10.9414 6.90625 11.0625 6.90625 11.2148C6.90625 11.3672 6.78516 11.4883 6.63281 11.4883H6.01172ZM6.01172 9.84375C5.85937 9.84375 5.73828 9.72266 5.73828 9.57031C5.73828 9.41797 5.85937 9.29688 6.01172 9.29688H6.63281C6.78516 9.29688 6.90625 9.41797 6.90625 9.57031C6.90625 9.72266 6.78516 9.84375 6.63281 9.84375H6.01172ZM6.01172 8.19922C5.85937 8.19922 5.73828 8.07812 5.73828 7.92578C5.73828 7.77344 5.85937 7.65234 6.01172 7.65234H6.63281C6.78516 7.65234 6.90625 7.77344 6.90625 7.92578C6.90625 8.07812 6.78516 8.19922 6.63281 8.19922H6.01172ZM9.50781 8.19922C9.35547 8.19922 9.23438 8.07812 9.23438 7.92578C9.23438 7.77344 9.35547 7.65234 9.50781 7.65234H10.1289C10.2812 7.65234 10.4023 7.77344 10.4023 7.92578C10.4023 8.07812 10.2812 8.19922 10.1289 8.19922H9.50781ZM7.75781 8.19922C7.60547 8.19922 7.48438 8.07812 7.48438 7.92578C7.48438 7.77344 7.60547 7.65234 7.75781 7.65234H8.37891C8.53125 7.65234 8.65234 7.77344 8.65234 7.92578C8.65234 8.07812 8.53125 8.19922 8.37891 8.19922H7.75781ZM6.01172 6.55469C5.85937 6.55469 5.73828 6.43359 5.73828 6.28125C5.73828 6.12891 5.85937 6.00781 6.01172 6.00781H6.63281C6.78516 6.00781 6.90625 6.12891 6.90625 6.28125C6.90625 6.43359 6.78516 6.55469 6.63281 6.55469H6.01172ZM9.50781 6.55469C9.35547 6.55469 9.23438 6.43359 9.23438 6.28125C9.23438 6.12891 9.35547 6.00781 9.50781 6.00781H10.1289C10.2812 6.00781 10.4023 6.12891 10.4023 6.28125C10.4023 6.43359 10.2812 6.55469 10.1289 6.55469H9.50781ZM7.75781 6.55469C7.60547 6.55469 7.48438 6.43359 7.48438 6.28125C7.48438 6.12891 7.60547 6.00781 7.75781 6.00781H8.37891C8.53125 6.00781 8.65234 6.12891 8.65234 6.28125C8.65234 6.43359 8.53125 6.55469 8.37891 6.55469H7.75781ZM6.01172 4.91016C5.85937 4.91016 5.73828 4.78906 5.73828 4.63672C5.73828 4.48438 5.85937 4.36328 6.01172 4.36328H6.63281C6.78516 4.36328 6.90625 4.48438 6.90625 4.63672C6.90625 4.78906 6.78516 4.91016 6.63281 4.91016H6.01172ZM9.50781 4.91016C9.35547 4.91016 9.23438 4.78906 9.23438 4.63672C9.23438 4.48438 9.35547 4.36328 9.50781 4.36328H10.1289C10.2812 4.36328 10.4023 4.48438 10.4023 4.63672C10.4023 4.78906 10.2812 4.91016 10.1289 4.91016H9.50781ZM7.75781 4.91016C7.60547 4.91016 7.48438 4.78906 7.48438 4.63672C7.48438 4.48438 7.60547 4.36328 7.75781 4.36328H8.37891C8.53125 4.36328 8.65234 4.48438 8.65234 4.63672C8.65234 4.78906 8.53125 4.91016 8.37891 4.91016H7.75781ZM9.50781 3.26562C9.35547 3.26562 9.23438 3.14453 9.23438 2.99219C9.23438 2.83984 9.35547 2.71875 9.50781 2.71875H10.1289C10.2812 2.71875 10.4023 2.83984 10.4023 2.99219C10.4023 3.14453 10.2812 3.26562 10.1289 3.26562H9.50781ZM7.75781 3.26562C7.60547 3.26562 7.48438 3.14453 7.48438 2.99219C7.48438 2.83984 7.60547 2.71875 7.75781 2.71875H8.37891C8.53125 2.71875 8.65234 2.83984 8.65234 2.99219C8.65234 3.14453 8.53125 3.26562 8.37891 3.26562H7.75781ZM1.09375 18.6445H18.9062V17.2344H1.09375V18.6445Z" fill="#8A8D8E"/>
</svg>
