<svg width="20" height="20" viewBox="0 0 20 20" fill="none" xmlns="http://www.w3.org/2000/svg">
<path d="M10.2333 9.06119C9.60849 9.05461 8.99956 8.86331 8.48321 8.51138C7.96686 8.15945 7.56617 7.66261 7.3316 7.08343C7.09702 6.50425 7.03905 5.86862 7.16497 5.25655C7.2909 4.64449 7.59509 4.08337 8.03926 3.64383C8.48342 3.20429 9.0477 2.90599 9.66105 2.78648C10.2744 2.66697 10.9094 2.7316 11.4861 2.97223C12.0628 3.21285 12.5554 3.61872 12.9019 4.13873C13.2484 4.65874 13.4333 5.26964 13.4333 5.89452C13.4275 6.73834 13.0874 7.54543 12.4876 8.13898C11.8878 8.73253 11.0772 9.06415 10.2333 9.06119ZM10.2333 3.83896C9.82827 3.84553 9.43418 3.97165 9.10056 4.20148C8.76694 4.4313 8.50867 4.75458 8.35819 5.13072C8.20771 5.50685 8.17172 5.91906 8.25476 6.31558C8.3378 6.7121 8.53616 7.07524 8.82491 7.35939C9.11367 7.64354 9.47995 7.83603 9.87776 7.91268C10.2756 7.98933 10.6871 7.94672 11.0608 7.79021C11.4345 7.6337 11.7536 7.37026 11.978 7.03299C12.2024 6.69571 12.3222 6.29964 12.3222 5.89452C12.3164 5.34539 12.0933 4.82091 11.7019 4.43573C11.3105 4.05055 10.7825 3.836 10.2333 3.83896Z" fill="#8A8D8E"/>
<path d="M10.2333 9.06119C9.60849 9.05461 8.99956 8.86331 8.48321 8.51138C7.96685 8.15945 7.56617 7.66261 7.33159 7.08343C7.09702 6.50425 7.03904 5.86862 7.16497 5.25655C7.29089 4.64449 7.59509 4.08337 8.03925 3.64383C8.48342 3.20429 9.0477 2.90599 9.66104 2.78648C10.2744 2.66697 10.9094 2.7316 11.4861 2.97223C12.0628 3.21285 12.5554 3.61872 12.9019 4.13873C13.2484 4.65874 13.4333 5.26964 13.4333 5.89452C13.4275 6.73834 13.0874 7.54543 12.4876 8.13898C11.8878 8.73253 11.0772 9.06415 10.2333 9.06119ZM10.2333 3.83896C9.82827 3.84553 9.43418 3.97165 9.10056 4.20148C8.76694 4.4313 8.50867 4.75458 8.35818 5.13072C8.2077 5.50685 8.17172 5.91906 8.25476 6.31558C8.3378 6.7121 8.53615 7.07524 8.82491 7.35939C9.11367 7.64354 9.47995 7.83603 9.87775 7.91268C10.2756 7.98933 10.6871 7.94672 11.0608 7.79021C11.4345 7.6337 11.7536 7.37026 11.978 7.03299C12.2024 6.69571 12.3222 6.29964 12.3222 5.89452C12.3164 5.34539 12.0933 4.82091 11.7019 4.43573C11.3105 4.05055 10.7825 3.836 10.2333 3.83896ZM12.1722 9.80563C9.70808 9.37685 7.17132 9.76712 4.95 10.9167C4.79232 11.0043 4.66176 11.1335 4.57259 11.2903C4.48343 11.4471 4.4391 11.6254 4.44445 11.8056V13.7834C4.44445 13.9308 4.50298 14.0721 4.60717 14.1762C4.71135 14.2804 4.85266 14.339 5 14.339C5.14735 14.339 5.28865 14.2804 5.39284 14.1762C5.49703 14.0721 5.55556 13.9308 5.55556 13.7834V11.8779C7.61538 10.8443 9.95778 10.5164 12.2222 10.9445L12.1722 9.80563Z" fill="#8A8D8E"/>
<path d="M18.3333 12.2223H14.6111V11.4C14.6111 11.2527 14.5526 11.1114 14.4484 11.0072C14.3442 10.903 14.2029 10.8445 14.0556 10.8445C13.9082 10.8445 13.7669 10.903 13.6627 11.0072C13.5585 11.1114 13.5 11.2527 13.5 11.4V12.2223H9.44444C9.2971 12.2223 9.15579 12.2808 9.0516 12.385C8.94742 12.4892 8.88889 12.6305 8.88889 12.7778V18.3334C8.88889 18.4807 8.94742 18.622 9.0516 18.7262C9.15579 18.8304 9.2971 18.8889 9.44444 18.8889H18.3333C18.4807 18.8889 18.622 18.8304 18.7262 18.7262C18.8304 18.622 18.8889 18.4807 18.8889 18.3334V12.7778C18.8889 12.6305 18.8304 12.4892 18.7262 12.385C18.622 12.2808 18.4807 12.2223 18.3333 12.2223ZM17.7778 17.7778H10V13.3334H13.5V13.5611C13.5 13.7085 13.5585 13.8498 13.6627 13.954C13.7669 14.0582 13.9082 14.1167 14.0556 14.1167C14.2029 14.1167 14.3442 14.0582 14.4484 13.954C14.5526 13.8498 14.6111 13.7085 14.6111 13.5611V13.3334H17.7778V17.7778Z" fill="#8A8D8E"/>
<path d="M12.1167 15.2333H15.4278V16.0111H12.1167V15.2333ZM6.02223 6.79996C4.48414 6.82569 2.97272 7.20592 1.60556 7.91107C1.45687 7.98961 1.33232 8.10708 1.24523 8.25092C1.15814 8.39477 1.11178 8.55958 1.11111 8.72774V10.45C1.11111 10.5973 1.16965 10.7386 1.27383 10.8428C1.37802 10.947 1.51933 11.0055 1.66667 11.0055C1.81401 11.0055 1.95532 10.947 2.05951 10.8428C2.16369 10.7386 2.22223 10.5973 2.22223 10.45V8.83885C3.5285 8.18864 4.97476 7.87 6.43334 7.91107C6.24265 7.56282 6.10414 7.18845 6.02223 6.79996ZM18.3944 7.90551C17.1683 7.2623 15.8207 6.88376 14.4389 6.7944C14.3572 7.18217 14.2207 7.55631 14.0333 7.90551C15.335 7.93685 16.6137 8.25557 17.7778 8.83885V10.45C17.7778 10.5973 17.8363 10.7386 17.9405 10.8428C18.0447 10.947 18.186 11.0055 18.3333 11.0055C18.4807 11.0055 18.622 10.947 18.7262 10.8428C18.8304 10.7386 18.8889 10.5973 18.8889 10.45V8.72774C18.8892 8.55864 18.8433 8.39266 18.7562 8.24775C18.6691 8.10283 18.544 7.98449 18.3944 7.90551ZM5.92223 5.8944V5.52218C5.48701 5.46394 5.09103 5.24009 4.81671 4.89723C4.54239 4.55438 4.41087 4.11893 4.44952 3.68154C4.48818 3.24416 4.69404 2.83853 5.02424 2.5491C5.35444 2.25967 5.78354 2.10874 6.22223 2.12774C6.67851 2.12691 7.11708 2.30433 7.44445 2.62218C7.73341 2.38413 8.05062 2.18261 8.38889 2.02218C8.0109 1.58754 7.51008 1.27764 6.95244 1.13333C6.3948 0.989013 5.80652 1.01705 5.26514 1.21376C4.72375 1.41046 4.25468 1.76659 3.91974 2.23521C3.5848 2.70383 3.39972 3.26294 3.38889 3.83885C3.40055 4.54371 3.67456 5.21891 4.15739 5.73257C4.64023 6.24622 5.29721 6.56143 6 6.61662C5.95282 6.37865 5.92679 6.13697 5.92223 5.8944ZM13.7611 1.01662C13.3793 1.01671 13.0014 1.0929 12.6494 1.24076C12.2974 1.38861 11.9784 1.60516 11.7111 1.87774C12.0863 2.01465 12.4414 2.20152 12.7667 2.43329C13.026 2.25325 13.3294 2.14698 13.6444 2.1258C13.9594 2.10462 14.2743 2.16932 14.5554 2.31302C14.8365 2.45672 15.0734 2.67403 15.2407 2.94176C15.408 3.20949 15.4996 3.51762 15.5056 3.83329C15.5021 4.15753 15.4068 4.47416 15.2308 4.7465C15.0548 5.01885 14.8053 5.23578 14.5111 5.37218C14.5337 5.54347 14.5448 5.71607 14.5444 5.88885C14.5427 6.11215 14.5241 6.335 14.4889 6.55551C15.0941 6.39992 15.6309 6.04861 16.0157 5.55627C16.4006 5.06392 16.6118 4.45817 16.6167 3.83329C16.6093 3.08179 16.3049 2.36374 15.7699 1.83598C15.2348 1.30822 14.5126 1.01365 13.7611 1.01662Z" fill="#8A8D8E"/>
</svg>
