<svg width="20" height="16" viewBox="0 0 20 16" fill="none" xmlns="http://www.w3.org/2000/svg">
<mask id="path-1-outside-1_55350_4353" maskUnits="userSpaceOnUse" x="2.15215" y="0.150635" width="15" height="12" fill="black">
<rect fill="white" x="2.15215" y="0.150635" width="15" height="12"/>
<path d="M6.16706 4.92711C6.11883 4.92711 6.07059 4.91534 6.02706 4.88946L5.12353 4.37299L4.22 4.88946C4.12353 4.94475 4.00353 4.93769 3.91412 4.87299C3.82471 4.80828 3.78118 4.69534 3.80353 4.58711L4.0153 3.56828L3.24471 2.86828C3.16235 2.79416 3.13177 2.67769 3.16588 2.57181C3.2 2.46593 3.29294 2.39064 3.40353 2.37887L4.43883 2.26593L4.86588 1.31652C4.91177 1.21534 5.01177 1.15063 5.12353 1.15063C5.2353 1.15063 5.3353 1.21534 5.38118 1.31652L5.80824 2.26593L6.84353 2.37887C6.95412 2.39064 7.04706 2.46711 7.08118 2.57181C7.1153 2.67652 7.08471 2.79299 7.00235 2.86828L6.23177 3.56828L6.44353 4.58711C6.46588 4.69534 6.42235 4.80828 6.33294 4.87299C6.28353 4.90946 6.22471 4.92711 6.16706 4.92711ZM5.12235 3.76593C5.17059 3.76593 5.21883 3.77887 5.26235 3.80358L5.76235 4.08946L5.64471 3.52593C5.62471 3.42828 5.65765 3.32711 5.73177 3.25887L6.15765 2.87181L5.58588 2.80946C5.48588 2.79887 5.4 2.73534 5.35883 2.64475L5.12235 2.12005L4.88588 2.64475C4.84471 2.73652 4.75883 2.79887 4.65883 2.80946L4.08706 2.87181L4.51294 3.25887C4.58706 3.32593 4.62 3.42711 4.6 3.52593L4.48235 4.08946L4.98235 3.80358C5.02588 3.77887 5.07412 3.76593 5.12235 3.76593ZM11.0435 4.92711C10.9953 4.92711 10.9471 4.91534 10.9035 4.88946L10 4.37299L9.09647 4.88946C9 4.94475 8.88 4.93769 8.79059 4.87299C8.70118 4.80828 8.65765 4.69534 8.68 4.58711L8.89177 3.56828L8.12118 2.86828C8.03882 2.79416 8.00824 2.67769 8.04235 2.57181C8.07647 2.46593 8.16941 2.39064 8.28 2.37887L9.3153 2.26593L9.74235 1.31652C9.78824 1.21534 9.88824 1.15063 10 1.15063C10.1118 1.15063 10.2118 1.21534 10.2576 1.31652L10.6847 2.26593L11.72 2.37887C11.8306 2.39064 11.9235 2.46711 11.9576 2.57181C11.9918 2.67769 11.9612 2.79299 11.8788 2.86828L11.1082 3.56828L11.32 4.58711C11.3424 4.69534 11.2988 4.80828 11.2094 4.87299C11.1612 4.90946 11.1024 4.92711 11.0435 4.92711ZM10 3.76593C10.0482 3.76593 10.0965 3.77887 10.14 3.80358L10.64 4.08946L10.5224 3.52593C10.5024 3.42828 10.5353 3.32711 10.6094 3.25887L11.0353 2.87181L10.4635 2.80946C10.3647 2.79887 10.2776 2.73534 10.2365 2.64475L10 2.11887L9.76353 2.64358C9.72235 2.73534 9.63647 2.79769 9.53647 2.80828L8.96471 2.87063L9.39059 3.25769C9.46471 3.32475 9.49765 3.42593 9.47765 3.52475L9.36 4.08828L9.86 3.8024C9.90353 3.77887 9.95177 3.76593 10 3.76593ZM15.9212 4.92711C15.8729 4.92711 15.8247 4.91534 15.7812 4.88946L14.8776 4.37299L13.9741 4.88946C13.8776 4.94475 13.7576 4.93769 13.6682 4.87299C13.5788 4.80828 13.5353 4.69534 13.5576 4.58711L13.7694 3.56828L12.9988 2.86828C12.9165 2.79416 12.8859 2.67769 12.92 2.57181C12.9541 2.46593 13.0471 2.39064 13.1576 2.37887L14.1929 2.26593L14.62 1.31652C14.6659 1.21534 14.7659 1.15063 14.8776 1.15063C14.9894 1.15063 15.0894 1.21534 15.1353 1.31652L15.5624 2.26593L16.5976 2.37887C16.7082 2.39064 16.8012 2.46711 16.8353 2.57181C16.8694 2.67769 16.8388 2.79299 16.7565 2.86828L15.9859 3.56828L16.1976 4.58711C16.22 4.69534 16.1765 4.80828 16.0871 4.87299C16.0376 4.90946 15.98 4.92711 15.9212 4.92711ZM14.8776 3.76593C14.9259 3.76593 14.9741 3.77887 15.0176 3.80358L15.5176 4.08946L15.4 3.52593C15.38 3.42828 15.4129 3.32711 15.4871 3.25887L15.9129 2.87181L15.3412 2.80946C15.2424 2.79887 15.1553 2.73534 15.1141 2.64475L14.8776 2.12005L14.6412 2.64475C14.6 2.73652 14.5141 2.79887 14.4141 2.80946L13.8424 2.87181L14.2682 3.25887C14.3424 3.32593 14.3753 3.42711 14.3553 3.52593L14.2376 4.08946L14.7376 3.80358C14.7812 3.77887 14.8294 3.76593 14.8776 3.76593ZM10.3576 11.8848H8.81059C8.65412 11.8848 8.52824 11.7589 8.52824 11.6024C8.52824 11.4459 8.65412 11.32 8.81059 11.32H10.3588C10.5435 11.32 10.6941 11.1683 10.6941 10.9824C10.6941 10.7965 10.5435 10.6448 10.3588 10.6448H7.38471C7.22824 10.6448 7.10235 10.5189 7.10235 10.3624C7.10235 10.2059 7.22824 10.08 7.38471 10.08H10.3588C10.8553 10.08 11.2588 10.4848 11.2588 10.9824C11.2588 11.48 10.8541 11.8848 10.3576 11.8848Z"/>
</mask>
<path d="M6.16706 4.92711C6.11883 4.92711 6.07059 4.91534 6.02706 4.88946L5.12353 4.37299L4.22 4.88946C4.12353 4.94475 4.00353 4.93769 3.91412 4.87299C3.82471 4.80828 3.78118 4.69534 3.80353 4.58711L4.0153 3.56828L3.24471 2.86828C3.16235 2.79416 3.13177 2.67769 3.16588 2.57181C3.2 2.46593 3.29294 2.39064 3.40353 2.37887L4.43883 2.26593L4.86588 1.31652C4.91177 1.21534 5.01177 1.15063 5.12353 1.15063C5.2353 1.15063 5.3353 1.21534 5.38118 1.31652L5.80824 2.26593L6.84353 2.37887C6.95412 2.39064 7.04706 2.46711 7.08118 2.57181C7.1153 2.67652 7.08471 2.79299 7.00235 2.86828L6.23177 3.56828L6.44353 4.58711C6.46588 4.69534 6.42235 4.80828 6.33294 4.87299C6.28353 4.90946 6.22471 4.92711 6.16706 4.92711ZM5.12235 3.76593C5.17059 3.76593 5.21883 3.77887 5.26235 3.80358L5.76235 4.08946L5.64471 3.52593C5.62471 3.42828 5.65765 3.32711 5.73177 3.25887L6.15765 2.87181L5.58588 2.80946C5.48588 2.79887 5.4 2.73534 5.35883 2.64475L5.12235 2.12005L4.88588 2.64475C4.84471 2.73652 4.75883 2.79887 4.65883 2.80946L4.08706 2.87181L4.51294 3.25887C4.58706 3.32593 4.62 3.42711 4.6 3.52593L4.48235 4.08946L4.98235 3.80358C5.02588 3.77887 5.07412 3.76593 5.12235 3.76593ZM11.0435 4.92711C10.9953 4.92711 10.9471 4.91534 10.9035 4.88946L10 4.37299L9.09647 4.88946C9 4.94475 8.88 4.93769 8.79059 4.87299C8.70118 4.80828 8.65765 4.69534 8.68 4.58711L8.89177 3.56828L8.12118 2.86828C8.03882 2.79416 8.00824 2.67769 8.04235 2.57181C8.07647 2.46593 8.16941 2.39064 8.28 2.37887L9.3153 2.26593L9.74235 1.31652C9.78824 1.21534 9.88824 1.15063 10 1.15063C10.1118 1.15063 10.2118 1.21534 10.2576 1.31652L10.6847 2.26593L11.72 2.37887C11.8306 2.39064 11.9235 2.46711 11.9576 2.57181C11.9918 2.67769 11.9612 2.79299 11.8788 2.86828L11.1082 3.56828L11.32 4.58711C11.3424 4.69534 11.2988 4.80828 11.2094 4.87299C11.1612 4.90946 11.1024 4.92711 11.0435 4.92711ZM10 3.76593C10.0482 3.76593 10.0965 3.77887 10.14 3.80358L10.64 4.08946L10.5224 3.52593C10.5024 3.42828 10.5353 3.32711 10.6094 3.25887L11.0353 2.87181L10.4635 2.80946C10.3647 2.79887 10.2776 2.73534 10.2365 2.64475L10 2.11887L9.76353 2.64358C9.72235 2.73534 9.63647 2.79769 9.53647 2.80828L8.96471 2.87063L9.39059 3.25769C9.46471 3.32475 9.49765 3.42593 9.47765 3.52475L9.36 4.08828L9.86 3.8024C9.90353 3.77887 9.95177 3.76593 10 3.76593ZM15.9212 4.92711C15.8729 4.92711 15.8247 4.91534 15.7812 4.88946L14.8776 4.37299L13.9741 4.88946C13.8776 4.94475 13.7576 4.93769 13.6682 4.87299C13.5788 4.80828 13.5353 4.69534 13.5576 4.58711L13.7694 3.56828L12.9988 2.86828C12.9165 2.79416 12.8859 2.67769 12.92 2.57181C12.9541 2.46593 13.0471 2.39064 13.1576 2.37887L14.1929 2.26593L14.62 1.31652C14.6659 1.21534 14.7659 1.15063 14.8776 1.15063C14.9894 1.15063 15.0894 1.21534 15.1353 1.31652L15.5624 2.26593L16.5976 2.37887C16.7082 2.39064 16.8012 2.46711 16.8353 2.57181C16.8694 2.67769 16.8388 2.79299 16.7565 2.86828L15.9859 3.56828L16.1976 4.58711C16.22 4.69534 16.1765 4.80828 16.0871 4.87299C16.0376 4.90946 15.98 4.92711 15.9212 4.92711ZM14.8776 3.76593C14.9259 3.76593 14.9741 3.77887 15.0176 3.80358L15.5176 4.08946L15.4 3.52593C15.38 3.42828 15.4129 3.32711 15.4871 3.25887L15.9129 2.87181L15.3412 2.80946C15.2424 2.79887 15.1553 2.73534 15.1141 2.64475L14.8776 2.12005L14.6412 2.64475C14.6 2.73652 14.5141 2.79887 14.4141 2.80946L13.8424 2.87181L14.2682 3.25887C14.3424 3.32593 14.3753 3.42711 14.3553 3.52593L14.2376 4.08946L14.7376 3.80358C14.7812 3.77887 14.8294 3.76593 14.8776 3.76593ZM10.3576 11.8848H8.81059C8.65412 11.8848 8.52824 11.7589 8.52824 11.6024C8.52824 11.4459 8.65412 11.32 8.81059 11.32H10.3588C10.5435 11.32 10.6941 11.1683 10.6941 10.9824C10.6941 10.7965 10.5435 10.6448 10.3588 10.6448H7.38471C7.22824 10.6448 7.10235 10.5189 7.10235 10.3624C7.10235 10.2059 7.22824 10.08 7.38471 10.08H10.3588C10.8553 10.08 11.2588 10.4848 11.2588 10.9824C11.2588 11.48 10.8541 11.8848 10.3576 11.8848Z" fill="#8A8D8E"/>
<path d="M6.16706 4.92711C6.11883 4.92711 6.07059 4.91534 6.02706 4.88946L5.12353 4.37299L4.22 4.88946C4.12353 4.94475 4.00353 4.93769 3.91412 4.87299C3.82471 4.80828 3.78118 4.69534 3.80353 4.58711L4.0153 3.56828L3.24471 2.86828C3.16235 2.79416 3.13177 2.67769 3.16588 2.57181C3.2 2.46593 3.29294 2.39064 3.40353 2.37887L4.43883 2.26593L4.86588 1.31652C4.91177 1.21534 5.01177 1.15063 5.12353 1.15063C5.2353 1.15063 5.3353 1.21534 5.38118 1.31652L5.80824 2.26593L6.84353 2.37887C6.95412 2.39064 7.04706 2.46711 7.08118 2.57181C7.1153 2.67652 7.08471 2.79299 7.00235 2.86828L6.23177 3.56828L6.44353 4.58711C6.46588 4.69534 6.42235 4.80828 6.33294 4.87299C6.28353 4.90946 6.22471 4.92711 6.16706 4.92711ZM5.12235 3.76593C5.17059 3.76593 5.21883 3.77887 5.26235 3.80358L5.76235 4.08946L5.64471 3.52593C5.62471 3.42828 5.65765 3.32711 5.73177 3.25887L6.15765 2.87181L5.58588 2.80946C5.48588 2.79887 5.4 2.73534 5.35883 2.64475L5.12235 2.12005L4.88588 2.64475C4.84471 2.73652 4.75883 2.79887 4.65883 2.80946L4.08706 2.87181L4.51294 3.25887C4.58706 3.32593 4.62 3.42711 4.6 3.52593L4.48235 4.08946L4.98235 3.80358C5.02588 3.77887 5.07412 3.76593 5.12235 3.76593ZM11.0435 4.92711C10.9953 4.92711 10.9471 4.91534 10.9035 4.88946L10 4.37299L9.09647 4.88946C9 4.94475 8.88 4.93769 8.79059 4.87299C8.70118 4.80828 8.65765 4.69534 8.68 4.58711L8.89177 3.56828L8.12118 2.86828C8.03882 2.79416 8.00824 2.67769 8.04235 2.57181C8.07647 2.46593 8.16941 2.39064 8.28 2.37887L9.3153 2.26593L9.74235 1.31652C9.78824 1.21534 9.88824 1.15063 10 1.15063C10.1118 1.15063 10.2118 1.21534 10.2576 1.31652L10.6847 2.26593L11.72 2.37887C11.8306 2.39064 11.9235 2.46711 11.9576 2.57181C11.9918 2.67769 11.9612 2.79299 11.8788 2.86828L11.1082 3.56828L11.32 4.58711C11.3424 4.69534 11.2988 4.80828 11.2094 4.87299C11.1612 4.90946 11.1024 4.92711 11.0435 4.92711ZM10 3.76593C10.0482 3.76593 10.0965 3.77887 10.14 3.80358L10.64 4.08946L10.5224 3.52593C10.5024 3.42828 10.5353 3.32711 10.6094 3.25887L11.0353 2.87181L10.4635 2.80946C10.3647 2.79887 10.2776 2.73534 10.2365 2.64475L10 2.11887L9.76353 2.64358C9.72235 2.73534 9.63647 2.79769 9.53647 2.80828L8.96471 2.87063L9.39059 3.25769C9.46471 3.32475 9.49765 3.42593 9.47765 3.52475L9.36 4.08828L9.86 3.8024C9.90353 3.77887 9.95177 3.76593 10 3.76593ZM15.9212 4.92711C15.8729 4.92711 15.8247 4.91534 15.7812 4.88946L14.8776 4.37299L13.9741 4.88946C13.8776 4.94475 13.7576 4.93769 13.6682 4.87299C13.5788 4.80828 13.5353 4.69534 13.5576 4.58711L13.7694 3.56828L12.9988 2.86828C12.9165 2.79416 12.8859 2.67769 12.92 2.57181C12.9541 2.46593 13.0471 2.39064 13.1576 2.37887L14.1929 2.26593L14.62 1.31652C14.6659 1.21534 14.7659 1.15063 14.8776 1.15063C14.9894 1.15063 15.0894 1.21534 15.1353 1.31652L15.5624 2.26593L16.5976 2.37887C16.7082 2.39064 16.8012 2.46711 16.8353 2.57181C16.8694 2.67769 16.8388 2.79299 16.7565 2.86828L15.9859 3.56828L16.1976 4.58711C16.22 4.69534 16.1765 4.80828 16.0871 4.87299C16.0376 4.90946 15.98 4.92711 15.9212 4.92711ZM14.8776 3.76593C14.9259 3.76593 14.9741 3.77887 15.0176 3.80358L15.5176 4.08946L15.4 3.52593C15.38 3.42828 15.4129 3.32711 15.4871 3.25887L15.9129 2.87181L15.3412 2.80946C15.2424 2.79887 15.1553 2.73534 15.1141 2.64475L14.8776 2.12005L14.6412 2.64475C14.6 2.73652 14.5141 2.79887 14.4141 2.80946L13.8424 2.87181L14.2682 3.25887C14.3424 3.32593 14.3753 3.42711 14.3553 3.52593L14.2376 4.08946L14.7376 3.80358C14.7812 3.77887 14.8294 3.76593 14.8776 3.76593ZM10.3576 11.8848H8.81059C8.65412 11.8848 8.52824 11.7589 8.52824 11.6024C8.52824 11.4459 8.65412 11.32 8.81059 11.32H10.3588C10.5435 11.32 10.6941 11.1683 10.6941 10.9824C10.6941 10.7965 10.5435 10.6448 10.3588 10.6448H7.38471C7.22824 10.6448 7.10235 10.5189 7.10235 10.3624C7.10235 10.2059 7.22824 10.08 7.38471 10.08H10.3588C10.8553 10.08 11.2588 10.4848 11.2588 10.9824C11.2588 11.48 10.8541 11.8848 10.3576 11.8848Z" stroke="#8A8D8E" stroke-width="0.2" mask="url(#path-1-outside-1_55350_4353)"/>
<path d="M8.81058 13.1757H10.5682C11.0924 13.1757 11.5182 12.7485 11.5182 12.2234C11.5182 11.6983 11.0924 11.271 10.5682 11.271H8.81058C8.6265 11.271 8.47823 11.4193 8.47823 11.6034C8.47823 11.7875 8.6265 11.9358 8.81058 11.9358H10.5682C10.725 11.9358 10.8535 12.0648 10.8535 12.2234C10.8535 12.382 10.725 12.511 10.5682 12.511H8.81058C8.6265 12.511 8.47823 12.6593 8.47823 12.8434C8.47823 13.0275 8.6265 13.1757 8.81058 13.1757Z" fill="#8A8D8E" stroke="#8A8D8E" stroke-width="0.1"/>
<path d="M8.76471 14.416H10.2659C10.7901 14.416 11.2159 13.9888 11.2159 13.4636C11.2159 12.9385 10.7901 12.5113 10.2659 12.5113H8.8106C8.62651 12.5113 8.47824 12.6595 8.47824 12.8436C8.47824 13.0277 8.62651 13.176 8.8106 13.176H10.2659C10.4226 13.176 10.5512 13.305 10.5512 13.4636C10.5512 13.6222 10.4226 13.7513 10.2659 13.7513H8.76471C8.58063 13.7513 8.43236 13.8995 8.43236 14.0836C8.43236 14.2677 8.58063 14.416 8.76471 14.416Z" fill="#8A8D8E" stroke="#8A8D8E" stroke-width="0.1"/>
<path d="M7.06079 10.2825L7.06081 10.2824L7.22786 9.59298L7.06079 10.2825ZM7.06079 10.2825C7.01796 10.4607 7.12693 10.6406 7.30544 10.6838C7.33244 10.6909 7.35898 10.6935 7.3847 10.6935C7.5345 10.6935 7.66978 10.5911 7.70842 10.4407L7.70843 10.4407L7.70859 10.44L7.87564 9.75065L7.06079 10.2825ZM6.40352 7.34355L6.42636 7.38803C6.31256 7.44646 6.24692 7.55594 6.24998 7.68234L6.24999 7.68263C6.25649 8.03753 6.24174 8.54464 6.14579 9.06844C6.04995 9.59167 5.87237 10.1356 5.55045 10.5608L5.51058 10.5306L5.55049 10.5607C5.43975 10.7075 5.23193 10.7366 5.08517 10.6258C4.93843 10.5151 4.90933 10.3072 5.02008 10.1605L5.02013 10.1604C5.2773 9.82078 5.42221 9.36393 5.50102 8.90956C5.5797 8.45601 5.59174 8.00973 5.58647 7.69502C5.58647 7.695 5.58647 7.69499 5.58647 7.69497L5.63646 7.69413L6.40352 7.34355ZM6.40352 7.34355C6.27294 7.41061 6.19647 7.53766 6.19999 7.68355L6.40352 7.34355ZM6.40352 7.34355L6.42621 7.3881C6.53894 7.33071 6.66443 7.34106 6.76424 7.41541L6.76426 7.41543C6.99889 7.59001 7.16645 7.89537 7.25571 8.33353L7.25571 8.33357M6.40352 7.34355L7.25571 8.33357M7.25571 8.33357C7.33888 8.74016 7.32857 9.17624 7.22787 9.59295L7.25571 8.33357ZM7.16275 6.88223C6.85927 6.65679 6.46121 6.62328 6.1242 6.79672L7.87565 9.75062C7.99968 9.24016 8.01167 8.70449 7.90898 8.20177C7.7885 7.60894 7.53897 7.16227 7.16279 6.88226L7.16275 6.88223ZM4.35646 15.6571H9.69058C10.2148 15.6571 10.6406 15.2299 10.6406 14.7047C10.6406 14.1796 10.2148 13.7524 9.69058 13.7524H8.7647C8.58062 13.7524 8.43235 13.9006 8.43235 14.0847C8.43235 14.2688 8.58062 14.4171 8.7647 14.4171H9.69058C9.84733 14.4171 9.97588 14.5461 9.97588 14.7047C9.97588 14.8633 9.84733 14.9924 9.69058 14.9924H4.35646C4.17238 14.9924 4.02411 15.1406 4.02411 15.3247C4.02411 15.5088 4.17238 15.6571 4.35646 15.6571Z" fill="#8A8D8E" stroke="#8A8D8E" stroke-width="0.1"/>
<path d="M2.65764 15.9334H4.35647C4.53924 15.9334 4.68882 15.7853 4.68882 15.6011V10.0846C4.68882 9.90051 4.54055 9.75225 4.35647 9.75225H2.65764C2.47356 9.75225 2.32529 9.90051 2.32529 10.0846V15.6011C2.32529 15.7852 2.47356 15.9334 2.65764 15.9334ZM4.02411 10.417V15.2687H2.99V10.417H4.02411Z" fill="#8A8D8E" stroke="#8A8D8E" stroke-width="0.1"/>
<path d="M13.8159 13.0376L13.8159 13.0376C13.7383 13.2038 13.5403 13.2758 13.3741 13.1983L13.8159 13.0376ZM13.8159 13.0376C14.0359 12.5658 14.5136 12.2606 15.0341 12.2606H15.1647C15.6852 12.2606 16.1629 12.5658 16.3829 13.0376M13.8159 13.0376L13.941 11.9193M13.941 11.9193L13.941 11.9193C14.2668 11.7081 14.6444 11.5959 15.0341 11.5959H15.1647C15.5544 11.5959 15.9321 11.7081 16.2578 11.9193L16.2578 11.9193C16.5751 12.1256 16.8261 12.4151 16.9853 12.7565C17.0628 12.9226 16.991 13.1205 16.825 13.1981C16.7791 13.2203 16.7317 13.23 16.6847 13.23C16.5602 13.23 16.4397 13.1595 16.3829 13.0376M13.941 11.9193C13.6237 12.1256 13.3727 12.4151 13.2135 12.7565L13.941 11.9193ZM16.3829 13.0376C16.3829 13.0376 16.3829 13.0376 16.3829 13.0376L16.4282 13.0165L16.3829 13.0376ZM4.35646 10.6936H5.28588C5.46865 10.6936 5.61823 10.5454 5.61823 10.3612C5.61823 10.1771 5.46996 10.0289 5.28588 10.0289H4.35646C4.17238 10.0289 4.02411 10.1771 4.02411 10.3612C4.02411 10.5453 4.17238 10.6936 4.35646 10.6936Z" fill="#8A8D8E" stroke="#8A8D8E" stroke-width="0.1"/>
<path d="M13.8453 11.006C13.8453 11.6983 14.4077 12.2607 15.1 12.2607C15.7923 12.2607 16.3547 11.6983 16.3547 11.006C16.3547 10.3137 15.7923 9.75127 15.1 9.75127C14.4077 9.75127 13.8453 10.3137 13.8453 11.006ZM14.51 11.0072C14.51 10.6818 14.7747 10.4172 15.1 10.4172C15.4253 10.4172 15.69 10.6818 15.69 11.0072C15.69 11.3325 15.4253 11.5972 15.1 11.5972C14.7747 11.5972 14.51 11.3325 14.51 11.0072Z" fill="#8A8D8E" stroke="#8A8D8E" stroke-width="0.1"/>
<path d="M14.7884 7.62802L14.7885 7.62807C14.837 7.75834 14.9616 7.8441 15.1 7.8441C15.2384 7.8441 15.363 7.75834 15.4115 7.62808L14.7884 7.62802ZM14.7884 7.62802L14.1841 6.00998H1.24706C1.06297 6.00998 0.914706 5.86172 0.914706 5.67763V0.398808C0.914706 0.214723 1.06297 0.0664551 1.24706 0.0664551H18.7529C18.937 0.0664551 19.0853 0.214723 19.0853 0.398808V5.67881C19.0853 5.86289 18.937 6.01116 18.7529 6.01116H16.0159L15.4116 7.62802H14.7884ZM13.2788 13.1306C13.7658 13.6177 14.4126 13.8853 15.1 13.8853C15.7874 13.8853 16.4342 13.6177 16.9212 13.1306C17.4083 12.6436 17.6759 11.998 17.6759 11.3094C17.6759 10.6208 17.4083 9.97517 16.9212 9.48816C16.4342 9.00114 15.7886 8.73351 15.1 8.73351C14.4114 8.73351 13.7658 9.00114 13.2788 9.48816C12.7917 9.97517 12.5241 10.6208 12.5241 11.3094C12.5241 11.998 12.7917 12.6436 13.2788 13.1306ZM13.19 11.3094C13.19 10.257 14.0465 9.3994 15.1 9.3994C16.1535 9.3994 17.01 10.257 17.01 11.3094C17.01 12.3618 16.1524 13.2194 15.1 13.2194C14.0476 13.2194 13.19 12.3618 13.19 11.3094ZM14.4141 5.34646H1.57941V0.731161H18.4206V5.34646H15.7859C15.6475 5.34646 15.5228 5.43224 15.4743 5.56254L15.1 6.56316L14.7257 5.56254C14.6772 5.43224 14.5525 5.34646 14.4141 5.34646Z" fill="#8A8D8E" stroke="#8A8D8E" stroke-width="0.1"/>
</svg>
