<svg width="20" height="14" viewBox="0 0 20 14" fill="none" xmlns="http://www.w3.org/2000/svg">
<path d="M17.2972 6.23823C17.8829 5.82667 18.2707 5.14207 18.2707 4.3704C18.2707 3.10803 17.2497 2.08706 15.9873 2.08706C14.725 2.08706 13.704 3.10803 13.704 4.3704C13.704 5.14207 14.0879 5.82667 14.6775 6.23823C14.1749 6.41235 13.7159 6.68144 13.3281 7.02968C12.7938 6.57459 12.1646 6.22636 11.4761 6.02058C12.311 5.51405 12.873 4.59201 12.873 3.54333C12.873 1.9446 11.5789 0.650574 9.98021 0.650574C8.38148 0.650574 7.08746 1.94856 7.08746 3.54333C7.08746 4.59201 7.64543 5.51405 8.48437 6.02058C7.80372 6.22636 7.18243 6.57064 6.65216 7.01781C6.26435 6.67748 5.81322 6.41235 5.31856 6.24218C5.90423 5.83063 6.29205 5.14602 6.29205 4.37436C6.29205 3.11199 5.27107 2.09102 4.00871 2.09102C2.74634 2.09102 1.72537 3.11199 1.72537 4.37436C1.72537 5.14602 2.10922 5.83063 2.69885 6.24218C1.12782 6.78433 0 8.27622 0 10.0293V10.2905C0 10.2984 0.00791452 10.3063 0.015829 10.3063H4.85556C4.82786 10.5239 4.81203 10.7495 4.81203 10.9751V11.2442C4.81203 12.4076 5.75386 13.3494 6.91729 13.3494H13.051C14.2145 13.3494 15.1563 12.4076 15.1563 11.2442V10.9751C15.1563 10.7495 15.1405 10.5239 15.1128 10.3063H19.9842C19.9921 10.3063 20 10.2984 20 10.2905V10.0293C19.9921 8.27226 18.8682 6.78037 17.2972 6.23823ZM14.3372 4.36644C14.3372 3.45627 15.0772 2.71626 15.9873 2.71626C16.8975 2.71626 17.6375 3.45627 17.6375 4.36644C17.6375 5.26474 16.9133 5.99683 16.019 6.01662H15.9557C15.0574 6.00079 14.3372 5.2687 14.3372 4.36644ZM7.7127 3.54333C7.7127 2.29679 8.72576 1.28374 9.9723 1.28374C11.2188 1.28374 12.2319 2.29679 12.2319 3.54333C12.2319 4.74634 11.2861 5.7317 10.1029 5.79897H9.84171C8.65849 5.7317 7.7127 4.74634 7.7127 3.54333ZM2.34666 4.36644C2.34666 3.45627 3.08666 2.71626 3.99683 2.71626C4.907 2.71626 5.64701 3.45627 5.64701 4.36644C5.64701 5.26474 4.92283 5.99683 4.02849 6.01662H3.96518C3.07083 6.00079 2.34666 5.2687 2.34666 4.36644ZM4.96636 9.66917H0.641076C0.819153 7.98338 2.24377 6.66165 3.97309 6.64978H4.02058C4.84369 6.65374 5.59557 6.95845 6.17729 7.45311C5.60744 8.07044 5.18401 8.83023 4.96636 9.66917ZM14.5152 11.2442C14.5152 12.0554 13.8544 12.7163 13.0431 12.7163H6.90938C6.09814 12.7163 5.43728 12.0554 5.43728 11.2442V10.9751C5.43728 8.51761 7.40008 6.50732 9.84171 6.43609C9.88524 6.44005 9.93273 6.44005 9.97626 6.44005C10.0198 6.44005 10.0673 6.44005 10.1108 6.43609C12.5524 6.50732 14.5152 8.51761 14.5152 10.9751V11.2442ZM14.9861 9.66917C14.7685 8.83419 14.353 8.08627 13.7871 7.46894C14.3728 6.96241 15.1326 6.6577 15.9636 6.64978H16.0111C17.7404 6.66165 19.165 7.98338 19.3431 9.66917H14.9861Z" fill="#8A8D8E"/>
</svg>
