<svg xmlns="http://www.w3.org/2000/svg" width="71" height="70" viewBox="0 0 71 70" fill="none">
  <path d="M7.09319 19.6533C7.90185 19.6322 8.42016 20.2459 8.21063 21.0695C8.13385 21.3712 7.94223 21.6571 7.80083 21.9335L7.23442 23.1289C5.90089 26.2282 5.11078 29.7042 4.93644 33.0836L4.9668 37.0895C5.16277 40.292 5.9996 44.2053 7.36739 47.0659C7.63484 47.6252 7.96286 48.1683 8.20017 48.7388L8.23649 48.8272C8.42785 49.4166 8.0094 50.0763 7.43742 50.2417C6.7239 50.3939 6.28584 49.4307 6.02492 48.9218C4.17036 45.3049 3.12304 40.5618 2.91311 36.4629C2.65066 31.3386 3.67634 25.9975 5.80344 21.3418C6.11517 20.6595 6.34307 19.9325 7.09319 19.6533ZM63.6115 19.6544C64.506 19.5926 64.8052 20.4895 65.1216 21.1656C68.6726 28.7539 69.0992 38.2178 66.2158 46.0652L65.1872 48.5306C64.8832 49.1824 64.6037 49.9147 63.9111 50.2367C63.2614 50.2851 62.8549 49.7545 62.6492 49.1923C62.8257 48.6498 63.0921 48.177 63.3397 47.6665C64.9363 44.374 65.8921 40.3235 66.0747 36.6404L66.0901 34.7749C66.0901 34.2006 66.1105 33.614 66.0745 33.0411L65.9717 32.0513C65.672 28.7724 64.9292 25.5119 63.5265 22.5244C63.09 21.5948 61.9604 20.1354 63.6115 19.6544ZM49.5921 62.1508C50.8048 62.0737 51.3762 63.3121 50.2434 64.0651C49.8623 64.3184 49.3881 64.4895 48.9699 64.6765L46.9331 65.5456C43.9082 66.6704 40.3794 67.3428 37.1607 67.5059L35.5458 67.5227C30.6464 67.5246 25.7898 66.4489 21.3383 64.4073C20.8282 64.154 20.0089 63.7166 20.1745 63.0025L20.2043 62.8726C20.3336 62.3717 21.0406 62.0426 21.5185 62.1956C22.0635 62.3701 22.5367 62.7013 23.0547 62.942C26.2911 64.4452 30.1664 65.2473 33.6955 65.4425L35.7497 65.4629C39.893 65.4606 43.9769 64.6478 47.7798 62.9693C48.3437 62.7203 48.9512 62.3098 49.5423 62.1628L49.5921 62.1508ZM34.4877 2.03494C38.1728 1.84322 43.1465 2.74527 46.5303 3.95774C47.4562 4.28945 49.7774 5.25105 50.5732 5.84332C51.1976 6.308 51.1307 7.334 50.3705 7.61798L50.3348 7.63076C49.637 7.89957 48.7568 7.1725 48.1601 6.87691C44.7967 5.21061 40.3181 4.18612 36.5681 4.13444C35.6084 4.13296 34.6317 4.09671 33.6741 4.15117C31.0622 4.29976 27.405 4.98932 24.9742 5.94292L23.0425 6.76289C22.6477 6.95175 22.2844 7.19398 21.8979 7.3973C21.1792 7.77541 20.1508 7.68496 20.0164 6.80511L19.9907 6.60533C19.9491 5.98501 20.5336 5.71855 21.0105 5.48727L21.8922 5.06169C25.8633 3.14744 30.113 2.39672 34.4877 2.03494Z" fill="#CBD8D8"/>
  <path d="M59.8754 51.3885C61.5804 51.3366 63.5813 51.8862 64.9392 52.937C67.032 54.5562 67.8299 56.1731 68.1693 58.7037L68.2076 59.1301C68.3081 63.7077 65.1154 67.6441 60.3743 67.7149C56.0052 67.7301 52.8088 64.6545 52.1846 60.4297L52.1513 60.1626C51.7726 55.4473 55.24 51.7287 59.8754 51.3885Z" fill="#839F9F"/>
  <path d="M60.0619 55.6234C61.1735 55.5297 62.3242 56.2103 62.8665 57.1601C64.0051 59.1542 62.7185 61.4968 60.4845 61.8703C56.5481 62.2769 55.8021 56.0912 60.0619 55.6234Z" fill="#FDFDFD"/>
  <path d="M10.4709 51.3866C14.8032 51.1908 18.4963 54.4959 18.869 58.7906C19.282 63.5491 15.8677 67.288 11.2068 67.7026C7.1847 67.781 4.14254 65.5548 3.02167 61.6844C1.7431 57.2695 4.92817 52.3886 9.3867 51.5092C9.74185 51.4391 10.1108 51.4182 10.4709 51.3866Z" fill="#839F9F"/>
  <path d="M10.6081 55.657C14.37 55.4049 15.3689 61.0462 11.23 61.7949C7.52851 62.3181 6.23615 56.269 10.6081 55.657Z" fill="#FDFDFD"/>
  <path d="M59.6543 1.96125L59.6666 1.95231C63.8931 1.75027 67.8829 4.84465 68.1986 9.16799C68.3831 11.6939 67.8242 13.8917 66.133 15.8158C64.7714 17.3647 62.7381 18.3881 60.682 18.5328C53.6827 19.2365 49.5713 10.4781 53.8624 5.0415C55.2957 3.22534 57.3838 2.22658 59.6543 1.96125Z" fill="#839F9F"/>
  <path d="M59.9931 6.16588C61.4777 6.0734 62.9318 7.03978 63.2205 8.53938L63.2699 8.80523C63.5289 10.526 62.0075 12.1107 60.3828 12.3352C56.3507 12.4297 55.7909 6.63586 59.9931 6.16588Z" fill="#FDFDFD"/>
  <path d="M10.4869 1.93086L10.6464 1.92423C18.1117 1.73108 21.5262 10.9679 16.6763 15.9599C15.1684 17.5119 13.3435 18.5363 11.163 18.5692C9.23549 18.5711 7.33177 18.0548 5.82298 16.7936C0.0462513 11.9652 2.91057 2.59491 10.4869 1.93086Z" fill="#839F9F"/>
  <path d="M10.6248 6.19745C12.1722 6.02703 13.6318 7.00049 13.9333 8.55038L13.9805 8.81198C14.2223 10.4859 12.839 11.9935 11.2405 12.2282C10.4985 12.2999 9.63389 12.0195 9.02974 11.5929C7.01718 10.1719 7.62588 6.65022 10.6248 6.19745Z" fill="#FDFDFD"/>
  <path d="M19.7861 48.1454L19.8168 47.7005C20.2487 44.5634 21.7144 41.9425 24.7319 40.6989C25.503 40.381 28.6522 39.6053 29.544 39.7408L29.5868 39.7484C29.7088 39.7691 29.7852 39.8213 29.8834 39.8925L35.3993 48.6764L39.9836 41.5409C40.3294 41.0235 40.8019 40.0696 41.4409 39.868C42.0158 39.866 42.617 39.8407 43.188 39.9055C47.1414 40.3534 51.2491 43.251 51.2592 47.5432L51.2476 47.8594C51.2438 47.9294 51.251 47.9629 51.2773 48.0266C50.8424 48.7676 50.1385 49.4169 49.5039 49.991C41.5214 57.2118 29.4031 57.3667 21.3985 49.9055C20.8222 49.3685 20.2444 48.7887 19.7861 48.1454Z" fill="#CBD8D8"/>
  <path d="M19.7863 48.1454C19.1749 47.3601 18.5603 46.5636 18.0376 45.7154C14.3029 39.6541 14.0363 31.8317 17.4229 25.5493C20.6613 19.542 26.1955 15.7087 32.8682 14.6631C42.6037 13.1374 52.2809 19.8461 55.0677 29.1304C56.6963 34.5561 56.0493 40.336 53.2158 45.2724C52.6558 46.248 51.9495 47.1274 51.2774 48.0266C51.2512 47.9629 51.2439 47.9294 51.2477 47.8594L51.2594 47.5432C51.2492 43.251 47.1415 40.3534 43.1882 39.9055C42.6171 39.8407 42.0159 39.866 41.441 39.8701C40.802 40.0696 40.3295 41.0235 39.9837 41.5409L35.3994 48.6764L29.8835 39.8925C29.7853 39.8213 29.7089 39.7691 29.587 39.7484L29.5442 39.7408C28.6523 39.6053 25.5032 40.381 24.7321 40.6989C21.7145 41.9425 20.2488 44.5634 19.8169 47.7005L19.7863 48.1454Z" fill="#839F9F"/>
  <path d="M29.8835 39.8925L29.9054 39.8563C30.0588 39.5958 30.6341 37.8525 30.4246 37.6923C28.915 36.5378 27.5398 33.4094 27.1496 31.6455C27.1107 31.4693 27.0262 30.8014 26.9038 30.728C26.4224 30.8719 26.2398 30.4653 26.0957 30.044L26.0789 29.9958C25.8205 29.2402 25.8857 28.4627 26.6803 28.0874C27.0519 27.912 27.0597 28.0494 27.0586 27.6194L27.0575 26.4423C27.062 22.2738 28.9476 19.4554 33.0942 18.0976C35.2255 17.3998 37.239 17.5919 39.2268 18.6129C43.5576 20.8372 44.0247 23.6816 44.0465 28.0427C44.4494 28.1246 44.7858 28.1827 45.0412 28.5472C45.6502 29.4162 44.9532 30.3382 44.0726 30.6773C43.7769 33.266 42.7279 35.2683 41.0542 37.1867C40.989 37.2615 40.5342 37.7564 40.5484 37.8021C40.7603 38.4795 40.5936 39.3757 41.3508 39.7848L41.441 39.868C40.802 40.0696 40.3295 41.0235 39.9837 41.5409L35.3994 48.6764L29.8835 39.8925Z" fill="#FDFDFD"/>
</svg>